<svg width="122.88" height="105.79" xmlns="http://www.w3.org/2000/svg">
 <defs>
  <style>.cls-1{fill-rule:evenodd;}</style>
 </defs>
 <title>crab</title>
 <g>
  <title>background</title>
  <rect fill="none" id="canvas_background" height="514" width="514" y="-1" x="-1"/>
 </g>
 <g>
  <title>Layer 1</title>
  <path fill="#d9d9d9" id="svg_1" d="m67.849998,44l-1.580002,-0.220001a16.82,16.82 0 0 0 -8.359997,-0.219997l-2.900002,0.259998a26.82,26.82 0 0 1 -0.189999,-3.939999a4.14,4.14 0 1 0 -2.82,-0.880001a17.67,17.67 0 0 0 -0.689999,5a33.669998,33.669998 0 0 0 -6,0.82l-9.93,-6.82c2.16,-2.48 2,-6.309999 1.149998,-11.16c7.710003,-2.690001 15.360001,-12.190001 11.870003,-21.64a27.799999,27.799999 0 0 1 -12.93,13.8c-0.25,-5.1 1.629997,-11.52 5.189999,-19a30.290001,30.290001 0 0 0 -15,16.719999c-2.08,5.800001 -3,19.000002 3.219999,22.520002a35.59,35.59 0 0 0 6.530001,10a18.91,18.91 0 0 0 -7.789999,11.369999a10.87,10.87 0 0 1 -1.490002,-1.290001a13.6,13.6 0 0 1 -3.23,-5.68a0.42,0.42 0 0 0 -0.49,-0.32l-1,0.200001a16.16,16.16 0 0 0 0.139999,-6.360001a15.63,15.63 0 0 0 -2.359999,-5.669998l-0.190001,-0.200001c-0.280001,-0.440002 -0.42,-0.650002 -0.700001,-0.75l0,0c-0.269999,-0.080002 -0.469999,0 -0.859999,0.16l-0.18,0.07a13.07,13.07 0 0 1 -2.83,-7.240002a35.869999,35.869999 0 0 1 0.549999,-9.049999a0.43,0.43 0 0 0 -0.15,-0.42a0.42,0.42 0 0 0 -0.59,0.060001a15.75,15.75 0 0 0 -3.639999,8.819998a18.41,18.41 0 0 0 2.059999,9.550003l-0.18,0.16c-0.559999,0.469997 -0.799999,0.68 -0.809999,1s0.15,0.489998 0.44,0.82a10,10 0 0 1 0.64,0.809998l0,0a19.309999,19.309999 0 0 1 2.56,5.100002a29.51,29.51 0 0 1 1.36,6.869999l-0.940001,1.209999a0.42,0.42 0 0 0 0,0.540001a24.07,24.07 0 0 0 7.27,5.690002a22.35,22.35 0 0 0 4.459999,1.649994a17.65,17.65 0 0 0 1,3.610001a8.4,8.4 0 0 1 -2.459999,-0.459999a15.77,15.77 0 0 1 -5.139999,-3.189995a0.41,0.41 0 0 0 -0.59,0a0.42,0.42 0 0 0 -0.1,0.199997l-0.360001,2a12.5,12.5 0 0 1 -4.629999,-2.720001a10.4,10.4 0 0 1 -2.87,-4.639999a0.42,0.42 0 0 0 -0.450001,-0.290001l-1.66,0.150002a28.379999,28.379999 0 0 1 -5.56,-5.549999a19.42,19.42 0 0 1 -3.39,-7.630001a0.42,0.42 0 0 0 -0.5,-0.329998a0.42,0.42 0 0 0 -0.32,0.329998a17.93,17.93 0 0 0 0.79,10.52a19,19 0 0 0 5.88,7.509998l-0.83,0.830002a0.42,0.42 0 0 0 0,0.589996l0,0a18.07,18.07 0 0 0 6,4.090004a22.83,22.83 0 0 0 7.34,1.639999l0.15,1.870003a0.42,0.42 0 0 0 0.379999,0.389999a29.16,29.16 0 0 0 6.51,-0.150002a23.440001,23.440001 0 0 0 4,-0.93a26.049999,26.049999 0 0 0 1.890001,2.459999a14.2,14.2 0 0 1 -4.330002,1.830002a25.780001,25.780001 0 0 1 -6.25,0.659996a0.42,0.42 0 0 0 -0.419998,0.420006l0,1.349998a8,8 0 0 0 -4.93,2.330002a9.45,9.45 0 0 0 -2.190001,6.229996c-1.54,1.709999 -2.3,4.559998 -2.2,7.599998a15.64,15.64 0 0 0 2.82,8.550003a0.41,0.41 0 0 0 0.58,0.089996a0.44,0.44 0 0 0 0.18,-0.360001a62.459999,62.459999 0 0 1 0,-7.5a17.76,17.76 0 0 1 1.2,-5.609993l1.23,-0.160004a0.42,0.42 0 0 0 0.370001,-0.349998a10.77,10.77 0 0 1 1.52,-4.099998a11.92,11.92 0 0 1 2.759998,-3a1.74,1.74 0 0 0 0.51,0.419998a4.22,4.22 0 0 0 2.32,0.419998a10.46,10.46 0 0 0 3,-0.68a12.87,12.87 0 0 0 6.530003,-5.369995a42,42 0 0 0 7.859997,5.689995c13,7.300003 25.290001,7.459999 43.130005,-5a15.21,15.21 0 0 0 1.32,-1a0.43,0.43 0 0 0 0.059998,0.270004a12.82,12.82 0 0 0 6.529999,5.409996a10.6,10.6 0 0 0 3,0.68a4.22,4.22 0 0 0 2.32,-0.419998a1.74,1.74 0 0 0 0.510002,-0.419998a11.7,11.7 0 0 1 2.75,3a10.62,10.62 0 0 1 1.529999,4.099998a0.42,0.42 0 0 0 0.370003,0.349998l1.229996,0.160004a17.76,17.76 0 0 1 1.190002,5.619995a62.459999,62.459999 0 0 1 0,7.5a0.44,0.44 0 0 0 0.18,0.360001a0.41,0.41 0 0 0 0.580002,-0.089996a15.64,15.64 0 0 0 2.82,-8.550003c0.099998,-3 -0.660004,-5.889999 -2.200005,-7.599998a9.45,9.45 0 0 0 -2.189995,-6.230003a8,8 0 0 0 -4.93,-2.329994l0,-1.350006a0.42,0.42 0 0 0 -0.420006,-0.419998a25.780001,25.780001 0 0 1 -6.25,-0.659996a14.09,14.09 0 0 1 -4.509995,-2a21.52,21.52 0 0 0 1.709999,-2.450005a24.450001,24.450001 0 0 0 4.369995,1a29.16,29.16 0 0 0 6.510002,0.150002a0.42,0.42 0 0 0 0.379997,-0.389999l0.150002,-1.870003a22.83,22.83 0 0 0 7.310005,-1.629997a18.07,18.07 0 0 0 6,-4.090004l0,0a0.42,0.42 0 0 0 0,-0.589996l-0.830002,-0.830002a19,19 0 0 0 5.879997,-7.509998a17.93,17.93 0 0 0 0.790001,-10.52a0.43,0.43 0 0 0 -0.330002,-0.330002a0.42,0.42 0 0 0 -0.489998,0.330002a19.42,19.42 0 0 1 -3.389999,7.630001a28.379999,28.379999 0 0 1 -5.5,5.619999l-1.610001,-0.07a0.42,0.42 0 0 0 -0.449997,0.290001a10.4,10.4 0 0 1 -2.870003,4.639999a12.5,12.5 0 0 1 -4.629997,2.720001l-0.360001,-2a0.42,0.42 0 0 0 -0.099998,-0.200005a0.41,0.41 0 0 0 -0.590004,0a15.77,15.77 0 0 1 -5.139999,3.190002a8.24,8.24 0 0 1 -3.120003,0.449997a35.169998,35.169998 0 0 0 1.07,-3.469994a22.49,22.49 0 0 0 5,-1.780006a24.07,24.07 0 0 0 7.290001,-5.629997a0.42,0.42 0 0 0 0,-0.540001l-0.939995,-1.209999a29.51,29.51 0 0 1 1.359993,-6.869999a19.309999,19.309999 0 0 1 2.560005,-5.100002l0,0a10,10 0 0 1 0.639999,-0.809998c0.290001,-0.330002 0.449997,-0.52 0.440002,-0.82s-0.25,-0.57 -0.810005,-1l-0.18,-0.16a18.41,18.41 0 0 0 2.060005,-9.549999a15.75,15.75 0 0 0 -3.639999,-8.820002a0.42,0.42 0 0 0 -0.590004,-0.059999a0.43,0.43 0 0 0 -0.150002,0.42a35.869999,35.869999 0 0 1 0.550003,9.049997a13.07,13.07 0 0 1 -2.830002,7.240002l-0.18,-0.07c-0.389999,-0.16 -0.589996,-0.240002 -0.860001,-0.16l0,0c-0.279999,0.099998 -0.419998,0.310001 -0.699997,0.75l-0.160004,0.25a15.63,15.63 0 0 0 -2.360001,5.669998a16.16,16.16 0 0 0 0.139999,6.360001l-1,-0.200001a0.42,0.42 0 0 0 -0.489998,0.320004a13.6,13.6 0 0 1 -3.229996,5.679996a11.24,11.24 0 0 1 -1.470001,1.280003a19.85,19.85 0 0 0 -2.82,-7.52a15.7,15.7 0 0 0 -4.43,-4.43a37.240002,37.240002 0 0 0 6,-9.459999c6.18,-3.48 5.299995,-16.720001 3.220001,-22.52a30.290001,30.290001 0 0 0 -15.080002,-16.860001c3.559998,7.44 5.440002,13.86 5.190002,19a27.799999,27.799999 0 0 1 -12.93,-13.8c-3.490005,9.45 4.159996,19.000001 11.869995,21.679999c-0.889999,4.85 -1,8.680002 1.150002,11.160002l-10.379997,7c-1.870003,-0.32 -3.730003,-0.549999 -5.600006,-0.690002a17.309999,17.309999 0 0 0 -0.68,-5.349998a4.13,4.13 0 1 0 -2.779999,0.869999a26.57,26.57 0 0 1 -0.209999,4.130001zm-13.269997,-9.549999a1.3,1.3 0 1 1 -1.290001,1.299999a1.3,1.3 0 0 1 1.290001,-1.299999zm13.720001,0a1.3,1.3 0 1 0 1.289993,1.299999a1.3,1.3 0 0 0 -1.289993,-1.299999z" class="cls-1"/>
 </g>
</svg>